<?xml version="1.0" encoding="utf-8"?>
<!-- Generator: Adobe Illustrator 25.2.3, SVG Export Plug-In . SVG Version: 6.00 Build 0)  -->
<svg version="1.1" id="Layer_1" xmlns="http://www.w3.org/2000/svg" xmlns:xlink="http://www.w3.org/1999/xlink" x="0px" y="0px"
	 viewBox="0 0 675 135.7" style="enable-background:new 0 0 675 135.7;" xml:space="preserve">
<style type="text/css">
	.st0{fill:#009BFF;}
	.st1{fill:#231F20;}
	.st2{fill:#FFFFFF;}
	.st3{fill:#F2F2F2;}
</style>
<g>
	<g>
		<path class="st0" d="M81.55,0.99L0.99,81.55c-1.32,1.32-1.32,3.47,0,4.8l19.84,19.84c1.32,1.32,3.47,1.32,4.8,0l80.56-80.56
			c1.32-1.32,1.32-3.47,0-4.8L86.35,0.99C85.02-0.33,82.88-0.33,81.55,0.99z"/>
		<path class="st0" d="M114.73,34.17L67.37,81.54c-1.32,1.32-1.32,3.47,0,4.8l19.84,19.84c1.32,1.32,3.47,1.32,4.8,0l47.36-47.36
			c1.32-1.32,1.32-3.47,0-4.8l-19.84-19.84C118.2,32.85,116.05,32.85,114.73,34.17z"/>
	</g>
	<path class="st3" d="M254.36,64.21c0,24.35-18.47,42.98-40.69,42.98c-12.74,0-22.39-5.23-28.6-13.73v40.25c0,1.1-0.89,2-2,2h-13.65
		c-1.1,0-2-0.89-2-2V25.35c0-1.1,0.89-2,2-2h13.65c1.1,0,2,0.89,2,2v9.77c6.21-8.66,15.85-13.89,28.6-13.89
		C235.9,21.23,254.36,40.02,254.36,64.21z M236.71,64.21c0-15.2-11.11-26.15-25.82-26.15c-14.71,0-25.82,10.95-25.82,26.15
		c0,15.2,11.11,26.15,25.82,26.15C225.6,90.35,236.71,79.4,236.71,64.21z"/>
	<path class="st3" d="M347.84,25.35v77.71c0,1.1-0.89,2-2,2h-13.65c-1.1,0-2-0.89-2-2v-9.77c-6.21,8.66-15.85,13.89-28.6,13.89
		c-22.22,0-40.69-18.79-40.69-42.98c0-24.35,18.46-42.98,40.69-42.98c12.74,0,22.39,5.23,28.6,13.73v-9.6c0-1.1,0.89-2,2-2h13.65
		C346.95,23.35,347.84,24.25,347.84,25.35z M330.19,64.21c0-15.2-11.11-26.15-25.82-26.15s-25.82,10.95-25.82,26.15
		c0,15.2,11.11,26.15,25.82,26.15S330.19,79.4,330.19,64.21z"/>
	<path class="st3" d="M493.81,91.01c9.04,0,15.99-3.75,20.09-8.81c0.61-0.75,1.69-0.91,2.52-0.42l11.12,6.5
		c1.02,0.59,1.33,1.95,0.62,2.89c-7.59,10.04-19.37,16.03-34.51,16.03c-26.96,0-44.45-18.46-44.45-42.98
		c0-24.18,17.48-42.98,43.14-42.98c24.35,0,41.02,19.61,41.02,43.14c0,2.45-0.33,5.07-0.65,7.35h-65.04
		C470.44,84.47,480.74,91.01,493.81,91.01z M515.54,57.34c-2.45-14.05-12.75-20.1-23.37-20.1c-13.24,0-22.22,7.84-24.67,20.1H515.54
		z"/>
	<path class="st3" d="M675,54.89v48.17c0,1.1-0.89,2-2,2h-13.65c-1.1,0-2-0.89-2-2V56.69c0-12.42-7.19-18.96-18.3-18.96
		c-11.6,0-20.75,6.86-20.75,23.53v41.8c0,1.1-0.89,2-2,2h-13.65c-1.1,0-2-0.89-2-2V25.35c0-1.1,0.89-2,2-2h13.65c1.1,0,2,0.89,2,2
		v8.46c5.39-8.5,14.22-12.58,25.33-12.58C661.93,21.23,675,33.65,675,54.89z"/>
	<path class="st3" d="M583.58,21.88c-10.29,0-20.26,4.09-25.16,15.2V25.35c0-1.1-0.89-2-2-2h-13.65c-1.1,0-2,0.89-2,2v77.71
		c0,1.1,0.89,2,2,2h13.65c1.1,0,2-0.89,2-2V63.88c0-18.3,13.28-22.88,25.16-22.88h6.15c1.1,0,2-0.89,2-2V23.88c0-1.1-0.89-2-2-2
		H583.58z"/>
	<path class="st3" d="M397.4,40.35c1.1,0,2-0.89,2-2v-13c0-1.1-0.89-2-2-2h-21V2c0-1.1-0.89-2-2-2h-13.65c-1.1,0-2,0.89-2,2v78.96
		c0,16.77,8.09,24.83,24.97,24.83l13.68-0.01c1.1,0,2-0.9,2-2V91.42c0-1.1-0.9-2-2-2c-2.84,0-8.3-0.01-10.5-0.01
		c-8.05,0-10.5-2.09-10.5-9.85V40.35H397.4z"/>
	<path class="st3" d="M445.33,40.35c1.1,0,2-0.89,2-2v-13c0-1.1-0.89-2-2-2h-21V2c0-1.1-0.89-2-2-2h-13.65c-1.1,0-2,0.89-2,2v78.96
		c0,16.77,8.09,24.83,24.97,24.83l13.68-0.01c1.1,0,1.99-0.9,1.99-2V91.42c0-1.1-0.9-2-2-2c-2.84,0-8.3-0.01-10.5-0.01
		c-8.05,0-10.5-2.09-10.5-9.85V40.35H445.33z"/>
</g>
</svg>
